<?xml version="1.0" standalone="no"?>
<!DOCTYPE svg PUBLIC "-//W3C//DTD SVG 20010904//EN"
 "http://www.w3.org/TR/2001/REC-SVG-20010904/DTD/svg10.dtd">
<svg version="1.0" xmlns="http://www.w3.org/2000/svg"
 width="700.000000pt" height="700.000000pt" viewBox="0 0 700.000000 700.000000"
 preserveAspectRatio="xMidYMid meet">
<metadata>
Created by potrace 1.14, written by Peter Selinger 2001-2017
</metadata>
<g transform="translate(0.000000,700.000000) scale(0.100000,-0.100000)"
fill="#000000" stroke="none">
<path d="M3498 6966 c-1 -2 -70 -6 -153 -10 -82 -3 -161 -8 -175 -10 -14 -2
-52 -7 -85 -10 -33 -3 -71 -8 -85 -11 -14 -3 -43 -8 -65 -11 -22 -2 -47 -6
-55 -8 -8 -1 -33 -6 -55 -10 -255 -49 -667 -192 -870 -301 -27 -15 -72 -39
-100 -53 -117 -60 -442 -276 -485 -323 -8 -8 -22 -20 -31 -25 -73 -41 -440
-407 -507 -506 -9 -13 -19 -25 -22 -28 -4 -3 -30 -36 -58 -75 -29 -38 -59 -79
-68 -90 -37 -48 -180 -286 -233 -388 -199 -387 -329 -825 -367 -1227 -3 -41
-8 -88 -10 -105 -6 -51 -6 -447 0 -495 3 -25 8 -76 11 -113 4 -37 8 -76 10
-85 1 -9 6 -42 10 -72 4 -30 9 -64 11 -75 3 -11 7 -37 10 -57 3 -20 21 -97 40
-170 19 -73 36 -142 39 -152 12 -50 73 -222 116 -327 196 -478 484 -889 870
-1244 165 -152 434 -349 589 -431 30 -16 57 -32 60 -35 5 -5 266 -134 330
-162 165 -72 523 -180 675 -203 22 -3 58 -9 80 -14 22 -5 63 -12 91 -15 28 -3
59 -7 70 -9 107 -20 528 -28 714 -13 78 7 245 30 370 52 51 9 306 74 335 85
17 7 37 13 45 15 20 5 139 47 221 78 89 35 263 115 322 149 26 15 50 28 54 28
4 0 49 27 194 115 30 18 160 105 172 115 7 6 46 36 87 67 41 31 77 60 80 63 3
3 32 27 65 55 76 63 283 270 356 355 55 65 197 248 234 304 11 16 27 39 35 51
78 116 230 396 289 535 52 122 123 329 156 453 51 194 70 290 94 470 35 255
33 660 -4 897 -3 19 -8 53 -11 75 -5 41 -23 129 -48 245 -84 389 -291 850
-538 1197 -193 272 -464 553 -718 746 -41 31 -79 61 -85 65 -23 19 -168 114
-217 143 -107 64 -125 74 -243 134 -269 136 -584 245 -870 301 -22 4 -42 8
-45 9 -3 1 -30 5 -60 10 -30 5 -57 9 -60 10 -3 1 -39 5 -80 9 -41 5 -84 10
-95 12 -11 2 -85 6 -165 10 -80 3 -150 7 -157 9 -6 2 -13 2 -15 1z"/>
</g>
</svg>
