<svg width="40" height="40" fill="none" xmlns="http://www.w3.org/2000/svg"><path d="M20 8.125V12.5h4.375A4.375 4.375 0 1020 8.125v0zm0 0V12.5h-4.375A4.375 4.375 0 1120 8.125v0z" stroke="#fff" stroke-width="2" stroke-miterlimit="10" stroke-linecap="round"/><path d="M32.5 12.5h-25A2.5 2.5 0 005 15v3.75a2.5 2.5 0 002.5 2.5h25a2.5 2.5 0 002.5-2.5V15a2.5 2.5 0 00-2.5-2.5z" stroke="#fff" stroke-width="2" stroke-linecap="round" stroke-linejoin="round"/><path d="M20 12.5v23.75m12.5-15V32.5a3.75 3.75 0 01-3.75 3.75h-17.5A3.75 3.75 0 017.5 32.5V21.25h25z" stroke="#fff" stroke-width="2" stroke-linecap="round" stroke-linejoin="round"/></svg>