<?xml version="1.0" standalone="no"?>
<!DOCTYPE svg PUBLIC "-//W3C//DTD SVG 20010904//EN"
 "http://www.w3.org/TR/2001/REC-SVG-20010904/DTD/svg10.dtd">
<svg version="1.0" xmlns="http://www.w3.org/2000/svg"
 width="700.000000pt" height="700.000000pt" viewBox="0 0 700.000000 700.000000"
 preserveAspectRatio="xMidYMid meet">
<metadata>
Created by potrace 1.14, written by Peter Selinger 2001-2017
</metadata>
<g transform="translate(0.000000,700.000000) scale(0.100000,-0.100000)"
fill="#000000" stroke="none">
<path d="M3305 6959 c-1119 -61 -2150 -679 -2740 -1643 -258 -422 -419 -892
-481 -1406 -24 -198 -24 -572 0 -770 80 -665 326 -1253 742 -1775 175 -219
471 -494 707 -659 499 -347 1079 -556 1685 -607 177 -15 550 -7 718 15 636 83
1192 320 1726 736 122 95 440 417 542 550 398 515 626 1063 713 1716 21 163
24 616 5 779 -112 936 -553 1738 -1276 2319 -466 375 -1051 628 -1651 715
-123 18 -456 43 -525 39 -14 0 -88 -4 -165 -9z m615 -144 c367 -49 702 -149
1025 -305 945 -457 1619 -1338 1814 -2370 56 -297 71 -698 37 -985 -110 -920
-571 -1725 -1302 -2276 -321 -242 -695 -429 -1077 -539 -677 -195 -1412 -166
-2075 81 -960 358 -1710 1154 -2010 2134 -94 306 -131 548 -139 887 -6 270 3
413 42 644 152 899 677 1703 1442 2207 461 304 978 485 1533 537 145 13 564 5
710 -15z"/>
<path d="M3693 6475 c-164 -164 -260 -280 -349 -425 -116 -188 -125 -335 -31
-515 40 -78 303 -344 437 -442 53 -38 108 -84 122 -102 95 -112 2 -372 -259
-723 -41 -55 -72 -102 -69 -105 10 -10 257 247 379 394 199 240 277 370 314
516 14 58 15 80 5 141 -22 139 -79 227 -255 389 -241 221 -277 259 -310 326
-29 59 -32 73 -31 155 2 129 40 231 166 439 33 54 57 104 55 110 -2 7 -80 -64
-174 -158z"/>
<path d="M3062 5623 c-116 -200 -174 -357 -175 -473 -1 -65 3 -83 28 -129 58
-106 186 -191 385 -256 47 -16 96 -35 109 -44 72 -46 69 -185 -9 -429 -17 -51
-30 -100 -30 -110 1 -18 139 262 178 358 32 80 62 206 62 260 0 145 -66 225
-256 308 -220 96 -262 132 -284 239 -13 58 -4 151 25 278 8 32 13 61 10 63 -2
2 -21 -27 -43 -65z"/>
<path d="M1790 5343 c-70 -7 -235 -45 -304 -70 -163 -58 -294 -139 -401 -247
-117 -118 -183 -237 -222 -403 -16 -71 -18 -131 -18 -668 0 -518 2 -599 17
-662 37 -158 98 -270 212 -390 354 -372 1006 -446 1476 -169 41 24 78 41 82
38 4 -4 106 -276 227 -606 121 -329 232 -618 245 -641 47 -80 47 -80 343 -80
250 0 263 1 290 21 48 35 66 72 158 323 l90 243 5 -703 c5 -739 5 -735 50
-759 11 -6 113 -10 254 -10 223 0 237 1 256 20 19 19 20 33 20 485 l0 465 260
0 c156 0 260 4 260 9 0 6 -9 25 -19 43 -38 65 -54 145 -48 241 4 77 10 99 40
158 l35 69 -264 0 -264 0 0 215 0 215 575 0 576 0 24 24 c31 31 38 94 34 291
l-4 157 -28 24 -28 24 -685 0 c-376 0 -684 4 -684 8 0 4 85 238 190 520 112
301 190 526 190 547 0 62 -21 67 -318 63 -226 -3 -260 -5 -283 -21 -33 -22
-40 -36 -114 -247 l-62 -175 -499 -3 -499 -2 -65 187 c-74 215 -95 247 -171
258 -24 3 -148 5 -275 3 -212 -3 -234 -5 -253 -22 -13 -12 -21 -31 -21 -51 0
-17 45 -152 99 -300 l100 -269 -15 -69 c-18 -90 -39 -132 -87 -180 -119 -119
-405 -144 -586 -53 -74 38 -146 124 -171 203 -19 62 -20 91 -20 564 0 429 2
505 16 546 39 118 130 205 253 244 76 24 252 29 334 10 118 -28 220 -108 270
-214 42 -89 36 -87 310 -87 312 0 317 2 304 149 -7 79 -50 207 -98 287 -81
137 -248 276 -419 349 -195 83 -451 121 -670 98z m1956 -2250 c-78 -243 -296
-864 -300 -853 -3 8 -71 207 -150 443 l-145 427 300 0 c282 0 300 -1 295 -17z"/>
<path d="M5267 2096 c-140 -39 -239 -184 -223 -325 29 -250 319 -362 513 -197
18 15 47 56 64 92 27 54 32 76 32 134 0 201 -194 350 -386 296z"/>
</g>
</svg>
