<svg width="60" height="60" fill="none" xmlns="http://www.w3.org/2000/svg"><g clip-path="url(#clip0_565_185)"><path d="M30.012 58.722c15.987 0 28.947-12.96 28.947-28.947 0-15.987-12.96-28.947-28.947-28.947-15.987 0-28.947 12.96-28.947 28.947 0 15.987 12.96 28.947 28.947 28.947z" fill="#fff" stroke="#231F20" stroke-miterlimit="10"/><path d="M16.544 37.988c-4.118 0-9.278-2.39-9.278-7.81v-8.19c0-5.444 5.16-7.81 9.278-7.81 4.284 0 8.545 2.177 8.994 6.58 0 .828-.284.994-1.064.994H21.16c-.734 0-.758-.663-1.042-1.066-.733-1.136-1.704-1.656-3.573-1.656-2.273 0-3.835 1.278-3.835 3.455v7.195c0 2.225 1.562 3.456 3.834 3.456 1.87 0 3.361-.686 3.645-2.343.095-.686.166-1.255.924-1.255h3.384c.758 0 1.041.355 1.041 1.184 0 4.45-4.71 7.266-8.994 7.266zm32.048-3.692h-13.42c-.71 0-.9.355-.9.923v19.053c0 .568.19.923.9.923h3.1c.71 0 .9-.118.9-.946v-7.432h4.473c-.9-1.231-.9-3.125.024-4.355h-4.521v-3.716h9.42c.71 0 .9-.355.9-.924V35.22c.023-.568-.166-.923-.876-.923z" fill="#000"/><path d="M19.337 24.568h3.67c.78 0 1.04.213 1.324 1.041l.97 2.77h8.593l.97-2.77c.284-.852.568-1.041 1.326-1.041h3.668c.781 0 .781.568.592.97l-7.787 20.994c-.284.734-.663 1.09-1.444 1.09h-3.36c-.782 0-1.113-.356-1.445-1.09l-7.74-20.994c-.118-.426-.118-.97.663-.97zm7.622 8.71l2.627 7.74 2.627-7.74H26.96z" fill="#BC3C3D"/><path fill-rule="evenodd" clip-rule="evenodd" d="M26.627 11.219c-.213 1.112-.686 2.485-.165 3.55.568 1.113 2.721 1.42 3.668 2.225 2.06 1.775-.544 5.586-1.254 7.314.095-.734.426-1.326.639-2.225.142-.616.402-1.917-.119-2.462-.307-.331-1.467-.568-1.94-.78-.521-.214-1.302-.593-1.704-.971-.308-.26-.876-.876-.97-1.491-.261-1.634 1.112-4 1.845-5.16z" fill="#BC3C3D"/><path fill-rule="evenodd" clip-rule="evenodd" d="M33.16 3.1c-.047.332-.308.616-.52.971-.498.852-1.303 2.201-1.42 3.361-.048.45-.048.97.117 1.444.332 1.065 1.515 1.893 2.462 2.769.923.828 1.917 1.751 2.343 2.816.166.45.332 1.302.166 1.989-.379 1.68-1.515 3.03-2.58 4.331-1.065 1.302-2.178 2.533-3.314 3.48-.023.141-.165.141-.047 0 .615-.782 1.325-1.705 1.94-2.77.545-.923 1.587-2.65 1.137-3.905-.213-.616-.97-1.018-1.61-1.491-.615-.497-1.16-1.018-1.609-1.444-.97-.923-2.201-2.083-2.343-3.787-.119-1.444.568-2.343 1.136-3.243 1.136-1.728 2.627-3.219 4.142-4.52z" fill="#BC3C3D"/><path d="M45.846 47.172a2.604 2.604 0 100-5.208 2.604 2.604 0 000 5.208z" fill="#BC3C3D"/></g><defs><clipPath id="clip0_565_185"><path fill="#fff" d="M0 0h60v59.29H0z"/></clipPath></defs></svg>