<?xml version="1.0" encoding="utf-8"?>
<svg xmlns="http://www.w3.org/2000/svg" xmlns:xlink="http://www.w3.org/1999/xlink">
    <symbol viewBox="0 0 25 25" id="calendar" xmlns="http://www.w3.org/2000/svg">
        <path fill-rule="evenodd" clip-rule="evenodd"
              d="M0 3.345c0-.927.803-1.678 1.798-1.678h21.404c.993 0 1.798.75 1.798 1.678v19.977c0 .927-.803 1.678-1.798 1.678H1.798C.805 25 0 24.25 0 23.322V3.345zm1.786 4.988h21.428v15H1.786v-15zm15.178 10.834V12.5h-1.326l-2.245 2.109.866.85 1.187-1.13v4.838h1.518zm-7.143 0c1.63 0 2.679-.784 2.679-1.897 0-.967-.896-1.48-1.589-1.548.754-.126 1.487-.658 1.487-1.47 0-1.075-.978-1.752-2.566-1.752-1.192 0-2.048.435-2.597 1.026l.723.86a2.52 2.52 0 011.731-.667c.703 0 1.263.252 1.263.764 0 .475-.51.688-1.263.688-.255 0-.723 0-.845-.01v1.238c.102-.01.56-.019.845-.019.947 0 1.365.232 1.365.745 0 .484-.459.823-1.284.823-.662 0-1.405-.271-1.863-.736l-.764.92c.499.58 1.436 1.035 2.678 1.035zM5.357.833c0-.46.382-.833.901-.833h1.77c.497 0 .9.387.9.833v.834h-3.57V.833zm10.714 0c0-.46.383-.833.902-.833h1.769c.497 0 .9.387.9.833v.834h-3.57V.833z"/>
    </symbol>
    <symbol viewBox="0 0 25 19" id="email" xmlns="http://www.w3.org/2000/svg">
        <path d="M24.658.897A1.955 1.955 0 0023.045.04H1.955C1.301.04.722.37.367.867l12.172 10.15L24.659.897z"/>
        <path d="M.002 2.597v14.41a1.96 1.96 0 001.954 1.953h21.089a1.959 1.959 0 001.953-1.953V2.649L12.538 13.05.003 2.597z"/>
    </symbol>
    <symbol viewBox="0 0 24 25" id="phone" xmlns="http://www.w3.org/2000/svg">
        <path d="M.107 6.982V5.238c.002-.31.397-.865.414-.879C3.546 1.575 7.684 0 12.003 0c4.33 0 8.481 1.583 11.508 4.383.003 0 .382.546.382.855v1.744c0 .64-.52 1.4-1.152 1.685l-.271.12c-.63.288-1.651.261-2.264-.054L17.94 7.561c-.616-.318-1.129-1.103-1.129-1.742V4.654c-2.973-1.548-6.648-1.546-9.622-.001v1.166c0 .64-.513 1.42-1.126 1.742l-2.27 1.17c-.61.317-1.63.345-2.265.057l-.27-.121C.627 8.379.109 7.622.109 6.982zM24 17.061v6.203c0 .853-.77 1.551-1.714 1.551H1.714c-.94 0-1.714-.698-1.714-1.55V17.06c0-.853.546-2.045 1.212-2.648l4.433-4.01c.666-.604 1.985-1.097 2.926-1.097v-1.55c.81-.976 2.08-1.551 3.429-1.551 1.35 0 2.621.575 3.428 1.55v1.552c.944 0 2.26.493 2.927 1.096l4.433 4.011c.666.603 1.212 1.795 1.212 2.648zm-6.857 0c0-2.57-2.3-4.653-5.143-4.653-2.84 0-5.143 2.082-5.143 4.653 0 2.57 2.304 4.652 5.143 4.652 2.843 0 5.143-2.082 5.143-4.652zM12 13.959c-1.89 0-3.429 1.392-3.429 3.102S10.11 20.163 12 20.163c1.892 0 3.428-1.393 3.428-3.102 0-1.71-1.536-3.102-3.428-3.102z"/>
    </symbol>
    <symbol viewBox="0 0 24 25" id="user" xmlns="http://www.w3.org/2000/svg">
        <path d="M11.98 12.977C5.598 12.99.32 17.643 0 23.526c-.008.167.02.334.084.49.064.157.161.3.287.42.125.12.276.216.443.282.167.065.347.098.528.097h21.324c.18 0 .36-.034.525-.1a1.36 1.36 0 00.44-.282 1.22 1.22 0 00.284-.42c.063-.155.09-.321.082-.487-.319-5.89-5.61-10.548-11.998-10.549h-.02zM12 0C8.619 0 5.86 2.553 5.86 5.673s2.758 5.681 6.14 5.681c3.383 0 6.15-2.561 6.15-5.681S15.383 0 12 0z"/>
    </symbol>
</svg>
