<svg xmlns="http://www.w3.org/2000/svg" viewBox="0 0 25 25">
    <g id="calendar" xmlns="http://www.w3.org/2000/svg">
        <path fill-rule="evenodd" clip-rule="evenodd"
              d="M0 3.345c0-.927.803-1.678 1.798-1.678h21.404c.993 0 1.798.75 1.798 1.678v19.977c0 .927-.803 1.678-1.798 1.678H1.798C.805 25 0 24.25 0 23.322V3.345zm1.786 4.988h21.428v15H1.786v-15zm15.178 10.834V12.5h-1.326l-2.245 2.109.866.85 1.187-1.13v4.838h1.518zm-7.143 0c1.63 0 2.679-.784 2.679-1.897 0-.967-.896-1.48-1.589-1.548.754-.126 1.487-.658 1.487-1.47 0-1.075-.978-1.752-2.566-1.752-1.192 0-2.048.435-2.597 1.026l.723.86a2.52 2.52 0 011.731-.667c.703 0 1.263.252 1.263.764 0 .475-.51.688-1.263.688-.255 0-.723 0-.845-.01v1.238c.102-.01.56-.019.845-.019.947 0 1.365.232 1.365.745 0 .484-.459.823-1.284.823-.662 0-1.405-.271-1.863-.736l-.764.92c.499.58 1.436 1.035 2.678 1.035zM5.357.833c0-.46.382-.833.901-.833h1.77c.497 0 .9.387.9.833v.834h-3.57V.833zm10.714 0c0-.46.383-.833.902-.833h1.769c.497 0 .9.387.9.833v.834h-3.57V.833z"/>
    </g>
</svg>
