<svg xmlns="http://www.w3.org/2000/svg" viewBox="0 0 25 25">
    <g  id="phone" xmlns="http://www.w3.org/2000/svg">
        <path d="M.107 6.982V5.238c.002-.31.397-.865.414-.879C3.546 1.575 7.684 0 12.003 0c4.33 0 8.481 1.583 11.508 4.383.003 0 .382.546.382.855v1.744c0 .64-.52 1.4-1.152 1.685l-.271.12c-.63.288-1.651.261-2.264-.054L17.94 7.561c-.616-.318-1.129-1.103-1.129-1.742V4.654c-2.973-1.548-6.648-1.546-9.622-.001v1.166c0 .64-.513 1.42-1.126 1.742l-2.27 1.17c-.61.317-1.63.345-2.265.057l-.27-.121C.627 8.379.109 7.622.109 6.982zM24 17.061v6.203c0 .853-.77 1.551-1.714 1.551H1.714c-.94 0-1.714-.698-1.714-1.55V17.06c0-.853.546-2.045 1.212-2.648l4.433-4.01c.666-.604 1.985-1.097 2.926-1.097v-1.55c.81-.976 2.08-1.551 3.429-1.551 1.35 0 2.621.575 3.428 1.55v1.552c.944 0 2.26.493 2.927 1.096l4.433 4.011c.666.603 1.212 1.795 1.212 2.648zm-6.857 0c0-2.57-2.3-4.653-5.143-4.653-2.84 0-5.143 2.082-5.143 4.653 0 2.57 2.304 4.652 5.143 4.652 2.843 0 5.143-2.082 5.143-4.652zM12 13.959c-1.89 0-3.429 1.392-3.429 3.102S10.11 20.163 12 20.163c1.892 0 3.428-1.393 3.428-3.102 0-1.71-1.536-3.102-3.428-3.102z"/>
    </g>
</svg>
