<svg width="40" height="40" fill="none" xmlns="http://www.w3.org/2000/svg"><path d="M31.875 26.25h-5a.625.625 0 00-.625.625v5c0 .345.28.625.625.625h5c.345 0 .625-.28.625-.625v-5a.625.625 0 00-.625-.625zm-6.25-5h-3.75a.625.625 0 00-.625.625v3.75c0 .345.28.625.625.625h3.75c.345 0 .625-.28.625-.625v-3.75a.625.625 0 00-.625-.625zm11.25 11.25h-3.75a.625.625 0 00-.625.625v3.75c0 .345.28.625.625.625h3.75c.345 0 .625-.28.625-.625v-3.75a.625.625 0 00-.625-.625zm0-11.25h-2.5a.625.625 0 00-.625.625v2.5c0 .345.28.625.625.625h2.5c.345 0 .625-.28.625-.625v-2.5a.625.625 0 00-.625-.625zm-12.5 12.5h-2.5a.625.625 0 00-.625.625v2.5c0 .345.28.625.625.625h2.5c.345 0 .625-.28.625-.625v-2.5a.625.625 0 00-.625-.625zm7.5-26.25h-5a.625.625 0 00-.625.625v5c0 .345.28.625.625.625h5c.345 0 .625-.28.625-.625v-5a.625.625 0 00-.625-.625z" fill="snow"/><path d="M35 3.75H23.75c-.69 0-1.25.56-1.25 1.25v11.25c0 .69.56 1.25 1.25 1.25H35c.69 0 1.25-.56 1.25-1.25V5c0-.69-.56-1.25-1.25-1.25z" stroke="snow" stroke-width="2" stroke-linecap="round" stroke-linejoin="round"/><path d="M13.125 7.5h-5a.625.625 0 00-.625.625v5c0 .345.28.625.625.625h5c.345 0 .625-.28.625-.625v-5a.625.625 0 00-.625-.625z" fill="snow"/><path d="M16.25 3.75H5c-.69 0-1.25.56-1.25 1.25v11.25c0 .69.56 1.25 1.25 1.25h11.25c.69 0 1.25-.56 1.25-1.25V5c0-.69-.56-1.25-1.25-1.25z" stroke="snow" stroke-width="2" stroke-linecap="round" stroke-linejoin="round"/><path d="M13.125 26.25h-5a.625.625 0 00-.625.625v5c0 .345.28.625.625.625h5c.345 0 .625-.28.625-.625v-5a.625.625 0 00-.625-.625z" fill="snow"/><path d="M16.25 22.5H5c-.69 0-1.25.56-1.25 1.25V35c0 .69.56 1.25 1.25 1.25h11.25c.69 0 1.25-.56 1.25-1.25V23.75c0-.69-.56-1.25-1.25-1.25z" stroke="snow" stroke-width="2" stroke-linecap="round" stroke-linejoin="round"/></svg>