<svg xmlns="http://www.w3.org/2000/svg" viewBox="0 0 25 25">
    <g id="user" xmlns="http://www.w3.org/2000/svg">
        <path d="M11.98 12.977C5.598 12.99.32 17.643 0 23.526c-.008.167.02.334.084.49.064.157.161.3.287.42.125.12.276.216.443.282.167.065.347.098.528.097h21.324c.18 0 .36-.034.525-.1a1.36 1.36 0 00.44-.282 1.22 1.22 0 00.284-.42c.063-.155.09-.321.082-.487-.319-5.89-5.61-10.548-11.998-10.549h-.02zM12 0C8.619 0 5.86 2.553 5.86 5.673s2.758 5.681 6.14 5.681c3.383 0 6.15-2.561 6.15-5.681S15.383 0 12 0z"/>
    </g>
</svg>
